<svg width="32" height="31" viewBox="0 0 32 31" fill="none" xmlns="http://www.w3.org/2000/svg">
<path d="M31.5336 15.2946C31.5141 18.4255 30.6404 21.2795 28.9126 23.8568C28.9012 23.8737 28.884 23.8859 28.8642 23.891C28.8443 23.896 28.8232 23.8937 28.8048 23.8844C27.8019 23.366 26.7279 23.105 25.5829 23.1016C22.7297 23.0941 19.8762 23.0866 17.0225 23.0792C13.46 23.07 9.89749 23.0746 6.33501 23.093C5.55734 23.0964 4.80495 23.2341 4.07785 23.5059C3.80254 23.6088 3.55538 23.739 3.33639 23.8965C1.51664 21.11 0.634929 18.0812 0.691258 14.8101C0.740689 13.7772 0.879496 12.7018 1.10768 11.5839C1.16516 11.3039 1.23931 11.0433 1.33012 10.8019C1.46405 10.4461 1.5425 10.2303 1.56549 10.1544C1.6543 9.86298 1.72844 9.54829 1.86984 9.28791C2.15091 8.7732 2.38025 8.23865 2.68804 7.73687C2.89841 7.3943 3.04986 7.15232 3.1424 7.01092C5.10125 4.00885 8.1973 1.81981 11.5382 0.715371C14.7196 -0.337336 18.3105 -0.213186 21.4143 0.988677C24.4095 2.14829 27.1555 4.19853 28.935 6.87211C29.9869 8.45218 30.7263 10.107 31.1534 11.8365C31.4184 12.9102 31.5451 14.0629 31.5336 15.2946ZM11.6141 4.40286C11.5393 4.38275 11.4896 4.39827 11.4649 4.44942C11.2339 4.92965 11.0899 5.28055 10.5708 5.57714C10.4139 5.6668 10.2458 5.75992 10.0665 5.85648C9.99175 5.89614 9.96043 5.94988 9.9725 6.01771C9.97847 6.05068 9.99373 6.08126 10.0165 6.10585C10.0392 6.13044 10.0686 6.14802 10.101 6.15651C10.7709 6.3324 11.1614 6.8359 11.521 7.3989C11.5258 7.40638 11.5325 7.41244 11.5404 7.41647C11.5483 7.4205 11.5571 7.42234 11.566 7.42182C11.5749 7.42129 11.5834 7.41841 11.5908 7.41347C11.5982 7.40853 11.6042 7.40172 11.608 7.39373C11.6799 7.24428 11.7578 7.09858 11.8417 6.95661C12.0926 6.52983 12.4581 6.33843 12.9021 6.16514C13.178 6.05765 13.1795 5.94672 12.9065 5.83234C12.6415 5.72141 12.4087 5.58202 12.2081 5.41419C11.8969 5.15468 11.8201 4.81153 11.6856 4.46753C11.6795 4.45197 11.6698 4.43803 11.6574 4.42682C11.645 4.4156 11.6302 4.4074 11.6141 4.40286ZM13.2565 10.5708L12.1546 12.1167C12.1552 12.1138 12.1561 12.1112 12.1572 12.1089C12.1584 12.1032 12.1575 12.1026 12.1546 12.1072C11.1183 13.72 10.2625 15.4188 9.58711 17.2035L8.90944 19.0589L8.35076 20.7729L7.92054 22.2558C7.9188 22.2619 7.91848 22.2684 7.91961 22.2747C7.92074 22.281 7.92329 22.2869 7.92705 22.292C7.93081 22.2971 7.93568 22.3012 7.94128 22.3041C7.94689 22.3069 7.95307 22.3084 7.95934 22.3084L24.2483 22.3118C24.2799 22.3118 24.2946 22.296 24.2923 22.2644C24.2854 22.1638 24.2647 22.0724 24.2302 21.9902C23.4582 20.178 22.8381 18.3381 22.3696 16.4706C22.1259 15.4981 21.9857 14.5247 21.9489 13.5505C21.9187 12.7607 22.0385 12.0589 22.3826 11.3209C22.943 10.1173 24.3319 9.37844 25.5959 9.475C26.8175 9.56811 27.8797 10.3717 28.4574 11.4606C28.616 11.7595 28.7557 12.0831 28.8764 12.4314C28.8907 12.4732 28.919 12.5089 28.9566 12.5323C28.9941 12.5557 29.0386 12.5654 29.0825 12.5598C29.2486 12.538 29.3417 12.4314 29.3618 12.24C29.494 10.9881 29.2552 9.82102 28.6453 8.73871C28.2827 8.09553 27.8519 7.55553 27.353 7.11869C26.1071 5.83062 24.3173 5.11243 22.5438 5.08656C20.2875 5.05466 18.0096 6.01512 16.2422 7.41528C15.1363 8.29067 14.1411 9.34251 13.2565 10.5708ZM7.96623 11.4407C8.20419 10.8631 8.55078 10.3587 9.14223 10.1121C9.30202 10.046 9.46238 9.98282 9.62332 9.92247C9.65866 9.90902 9.68915 9.88528 9.71084 9.85431C9.73253 9.82335 9.74443 9.78658 9.74499 9.74877C9.74554 9.71097 9.73474 9.67386 9.71397 9.64227C9.6932 9.61067 9.66342 9.58604 9.6285 9.57156C9.54688 9.53823 9.4621 9.50489 9.37415 9.47155C8.66085 9.20026 8.20735 8.6887 8.01365 7.93689C7.99066 7.8478 7.94612 7.77768 7.88002 7.72652C7.79955 7.66445 7.73747 7.6791 7.69379 7.77049C7.54119 8.08863 7.42048 8.47057 7.22563 8.72319C6.91611 9.12668 6.48934 9.3293 6.01773 9.54742C5.92548 9.59053 5.83582 9.67071 5.84013 9.76986C5.84138 9.80474 5.85329 9.8384 5.87425 9.8663C5.89522 9.8942 5.92423 9.91501 5.95738 9.92591C6.12349 9.98052 6.28845 10.042 6.45226 10.1104C7.16873 10.4105 7.39462 11.0597 7.7162 11.7063C7.75529 11.7845 7.79581 11.7853 7.83777 11.7089C7.8849 11.6227 7.92772 11.5333 7.96623 11.4407ZM6.21438 13.903C6.27698 13.8733 6.33292 13.8311 6.379 13.7789C6.42508 13.7267 6.46041 13.6655 6.48296 13.5988C6.50552 13.5321 6.51487 13.4612 6.51046 13.3901C6.50606 13.319 6.48799 13.2491 6.4573 13.1845C6.42661 13.1198 6.38389 13.0617 6.33158 13.0133C6.27927 12.965 6.21839 12.9274 6.15243 12.9027C6.08647 12.878 6.0167 12.8667 5.94713 12.8694C5.87756 12.8722 5.80953 12.8889 5.74694 12.9186C5.68434 12.9483 5.62841 12.9905 5.58232 13.0427C5.53624 13.0949 5.50091 13.1561 5.47835 13.2228C5.4558 13.2895 5.44645 13.3604 5.45086 13.4315C5.45526 13.5026 5.47333 13.5725 5.50402 13.6371C5.53471 13.7018 5.57743 13.7599 5.62974 13.8083C5.68205 13.8566 5.74293 13.8942 5.80889 13.9189C5.87485 13.9436 5.94461 13.9549 6.01419 13.9522C6.08376 13.9494 6.15179 13.9327 6.21438 13.903Z" fill="white"/>
<path d="M11.6143 4.40288C11.6304 4.40742 11.6452 4.41562 11.6577 4.42683C11.6701 4.43805 11.6797 4.45198 11.6859 4.46754C11.8204 4.81155 11.8971 5.15469 12.2083 5.41421C12.4089 5.58204 12.6417 5.72142 12.9067 5.83235C13.1797 5.94674 13.1783 6.05767 12.9024 6.16515C12.4584 6.33845 12.0928 6.52985 11.8419 6.95662C11.758 7.09859 11.6801 7.2443 11.6083 7.39374C11.6044 7.40174 11.5985 7.40855 11.5911 7.41349C11.5837 7.41842 11.5751 7.42131 11.5662 7.42183C11.5574 7.42236 11.5485 7.42051 11.5406 7.41649C11.5327 7.41246 11.526 7.40639 11.5212 7.39892C11.1617 6.83592 10.7711 6.33241 10.1012 6.15653C10.0688 6.14803 10.0395 6.13045 10.0167 6.10586C9.99396 6.08127 9.9787 6.05069 9.97273 6.01772C9.96066 5.9499 9.99199 5.89616 10.0667 5.8565C10.246 5.75993 10.4142 5.66682 10.5711 5.57715C11.0901 5.28057 11.2341 4.92967 11.4651 4.44944C11.4899 4.39828 11.5396 4.38276 11.6143 4.40288Z" fill="black"/>
<path d="M27.353 7.1187C27.3094 7.11123 27.2815 7.11985 27.2694 7.14457C27.2602 7.16296 27.2571 7.18279 27.2599 7.20406C27.2622 7.2186 27.2607 7.23349 27.2555 7.24727C27.2504 7.26105 27.2417 7.27327 27.2305 7.28273C27.2192 7.29219 27.2056 7.29857 27.1912 7.30125C27.1767 7.30393 27.1618 7.30282 27.1479 7.29803C26.5782 7.10376 26.0204 6.97846 25.4744 6.92213C25.1858 6.89281 24.8269 6.87442 24.3975 6.86695C23.2491 6.84626 22.1723 7.11612 20.9437 7.48857C20.4531 7.63687 20.0496 7.91104 20.2565 8.47144C20.4428 8.97581 20.9308 8.92581 21.3739 8.91632C21.3834 8.91612 21.3928 8.91825 21.4012 8.92252C21.4097 8.9268 21.417 8.93309 21.4224 8.94084C21.4279 8.9486 21.4313 8.95757 21.4325 8.96698C21.4337 8.97638 21.4325 8.98593 21.4291 8.99478C21.4055 9.05743 21.3745 9.11347 21.336 9.1629C20.9302 9.68193 20.5316 10.2202 20.1401 10.7777C20.1269 10.7971 20.1091 10.813 20.0883 10.824C20.0676 10.8349 20.0446 10.8407 20.0212 10.8407C17.8209 10.8505 15.608 10.8516 13.3825 10.8441C13.3204 10.8441 13.2784 10.753 13.2566 10.5708C14.1412 9.34252 15.1364 8.29068 16.2423 7.41529C18.0097 6.01513 20.2876 5.05467 22.5439 5.08657C24.3173 5.11244 26.1072 5.83062 27.353 7.1187Z" fill="black" fill-opacity="0.76"/>
<path d="M27.3532 7.1187C27.8521 7.55553 28.2829 8.09554 28.6456 8.73871C29.2554 9.82102 29.4942 10.9881 29.362 12.24C29.3419 12.4314 29.2488 12.538 29.0827 12.5598C29.0388 12.5654 28.9944 12.5557 28.9568 12.5323C28.9193 12.5089 28.891 12.4732 28.8766 12.4314C28.7559 12.0831 28.6163 11.7595 28.4576 11.4606C27.88 10.3717 26.8178 9.56812 25.5961 9.475C24.3322 9.37844 22.9432 10.1173 22.3828 11.3209C22.0388 12.0589 21.9189 12.7607 21.9491 13.5505C21.9859 14.5247 22.1261 15.4981 22.3699 16.4706C22.8383 18.3381 23.4585 20.178 24.2304 21.9902C24.2649 22.0724 24.2856 22.1638 24.2925 22.2644C24.2948 22.296 24.2801 22.3118 24.2485 22.3118L7.95957 22.3084C7.9533 22.3084 7.94712 22.3069 7.94152 22.3041C7.93592 22.3012 7.93105 22.2971 7.92729 22.292C7.92352 22.2869 7.92098 22.281 7.91985 22.2747C7.91872 22.2684 7.91904 22.2619 7.92078 22.2558L8.351 20.7729C9.36606 20.8263 10.3754 20.8505 11.3789 20.8453C13.3884 20.8344 15.3136 20.8275 17.1546 20.8246C17.5075 20.824 17.7989 20.6875 18.0288 20.4151C18.3358 20.0512 18.2746 19.4925 17.9323 19.1468C17.7357 18.9479 17.49 18.8496 17.1951 18.8519C15.3024 18.8692 13.42 18.8683 11.5479 18.8494C10.772 18.8416 9.99688 18.8985 9.2192 18.8356C9.18989 18.8333 9.16604 18.843 9.14764 18.8649C9.07407 18.9528 8.99475 19.0175 8.90968 19.0589L9.58735 17.2035C9.62701 17.2184 9.6704 17.2612 9.71754 17.3319C9.73363 17.3561 9.75605 17.3684 9.78479 17.369C10.1986 17.3776 10.5932 17.3837 10.9685 17.3871C13.0148 17.4055 15.0624 17.4078 17.1115 17.394C17.5167 17.3917 17.8259 17.2127 18.0392 16.8569C18.2763 16.4612 18.1056 15.937 17.7254 15.6999C17.5995 15.6217 17.4015 15.5832 17.1313 15.5843C15.9562 15.5912 14.8276 15.6016 13.712 15.605C13.28 15.6059 12.9739 15.4973 12.8601 15.0679C12.7619 14.7015 13.0791 14.3273 13.4042 14.2023C13.6438 14.11 14.0042 14.1195 14.2888 14.1161C15.4067 14.1057 16.6571 14.108 18.04 14.123C18.3631 14.1264 18.6065 13.9919 18.7703 13.7195C19.0531 13.2487 19.2842 12.7946 19.4635 12.3572C19.4773 12.3233 19.4833 12.2877 19.4816 12.2503C19.4809 12.2273 19.4711 12.2055 19.4544 12.1895C19.4376 12.1735 19.4152 12.1647 19.3919 12.165C17.4066 12.1845 15.4254 12.1905 13.4481 12.1831C13.2291 12.1825 13.0136 12.175 12.8015 12.1607C12.594 12.1474 12.3785 12.1328 12.1549 12.1167L13.2567 10.5708C13.2786 10.753 13.3205 10.8441 13.3826 10.8441C15.6082 10.8516 17.8211 10.8505 20.0213 10.8407C20.0447 10.8407 20.0678 10.8349 20.0885 10.824C20.1092 10.813 20.127 10.7971 20.1403 10.7777C20.5317 10.2202 20.9303 9.68192 21.3361 9.1629C21.3746 9.11347 21.4057 9.05743 21.4292 8.99478C21.4326 8.98593 21.4338 8.97638 21.4326 8.96697C21.4315 8.95757 21.428 8.94859 21.4226 8.94084C21.4171 8.93309 21.4098 8.92679 21.4014 8.92252C21.3929 8.91824 21.3835 8.91611 21.3741 8.91632C20.9309 8.9258 20.4429 8.97581 20.2567 8.47144C20.0498 7.91103 20.4533 7.63686 20.9438 7.48857C22.1724 7.11611 23.2493 6.84625 24.3977 6.86694C24.827 6.87442 25.186 6.89281 25.4745 6.92212C26.0206 6.97845 26.5784 7.10375 27.148 7.29803C27.1619 7.30282 27.1768 7.30392 27.1913 7.30124C27.2058 7.29856 27.2193 7.29218 27.2306 7.28272C27.2419 7.27326 27.2505 7.26105 27.2557 7.24727C27.2609 7.23348 27.2624 7.21859 27.2601 7.20405C27.2572 7.18278 27.2604 7.16295 27.2696 7.14456C27.2816 7.11985 27.3095 7.11123 27.3532 7.1187Z" fill="black"/>
<path d="M7.96634 11.4408C7.92783 11.5333 7.88501 11.6227 7.83788 11.7089C7.79592 11.7853 7.7554 11.7845 7.71631 11.7063C7.39473 11.0597 7.16884 10.4105 6.45237 10.1104C6.28856 10.042 6.1236 9.98053 5.95749 9.92593C5.92434 9.91502 5.89533 9.89422 5.87436 9.86632C5.8534 9.83841 5.84149 9.80476 5.84024 9.76988C5.83593 9.67073 5.92559 9.59055 6.01784 9.54744C6.48945 9.32931 6.91622 9.1267 7.22574 8.7232C7.42059 8.47059 7.5413 8.08865 7.6939 7.77051C7.73758 7.67912 7.79966 7.66446 7.88013 7.72654C7.94623 7.77769 7.99077 7.84782 8.01376 7.93691C8.20746 8.68872 8.66096 9.20027 9.37426 9.47157C9.46221 9.5049 9.54699 9.53824 9.62861 9.57158C9.66353 9.58606 9.69331 9.61069 9.71408 9.64228C9.73485 9.67388 9.74565 9.71098 9.7451 9.74879C9.74454 9.78659 9.73264 9.82336 9.71095 9.85433C9.68926 9.8853 9.65877 9.90904 9.62343 9.92248C9.46249 9.98283 9.30213 10.0461 9.14234 10.1122C8.55089 10.3587 8.2043 10.8631 7.96634 11.4408Z" fill="white"/>
<path d="M12.1547 12.1167C12.3783 12.1328 12.5938 12.1474 12.8013 12.1607C13.0134 12.175 13.229 12.1825 13.4479 12.1831C15.4252 12.1905 17.4065 12.1845 19.3917 12.165C19.415 12.1647 19.4374 12.1735 19.4542 12.1895C19.471 12.2055 19.4807 12.2273 19.4814 12.2503C19.4831 12.2877 19.4771 12.3233 19.4633 12.3572C19.284 12.7946 19.0529 13.2487 18.7701 13.7195C18.6063 13.9919 18.3629 14.1264 18.0399 14.123C16.6569 14.108 15.4065 14.1057 14.2886 14.1161C14.004 14.1195 13.6437 14.11 13.404 14.2023C13.0789 14.3273 12.7617 14.7015 12.8599 15.0679C12.9738 15.4973 13.2798 15.6059 13.7118 15.605C14.8274 15.6016 15.956 15.5912 17.1311 15.5843C17.4013 15.5832 17.5993 15.6217 17.7252 15.6999C18.1054 15.937 18.2761 16.4612 18.039 16.8569C17.8258 17.2127 17.5165 17.3917 17.1113 17.394C15.0622 17.4078 13.0146 17.4055 10.9684 17.3871C10.593 17.3837 10.1984 17.3776 9.7846 17.369C9.75586 17.3684 9.73344 17.3561 9.71735 17.3319C9.67021 17.2612 9.62682 17.2184 9.58716 17.2035C10.2625 15.4188 11.1184 13.72 12.1547 12.1072C12.1576 12.1026 12.1584 12.1032 12.1573 12.1089C12.1561 12.1112 12.1553 12.1138 12.1547 12.1167Z" fill="black" fill-opacity="0.76"/>
<path d="M5.50407 13.6371C5.63315 13.909 5.95119 14.028 6.21444 13.903C6.47768 13.778 6.58644 13.4563 6.45736 13.1845C6.32827 12.9126 6.01023 12.7936 5.74699 12.9186C5.48375 13.0436 5.37499 13.3653 5.50407 13.6371Z" fill="black"/>
<path d="M8.35083 20.7729L8.90951 19.0589C8.99458 19.0175 9.0739 18.9528 9.14747 18.8649C9.16587 18.8431 9.18972 18.8333 9.21903 18.8356C9.99671 18.8985 10.7718 18.8416 11.5477 18.8494C13.4198 18.8683 15.3022 18.8692 17.195 18.852C17.4898 18.8497 17.7355 18.9479 17.9321 19.1468C18.2744 19.4926 18.3356 20.0512 18.0287 20.4151C17.7988 20.6875 17.5073 20.824 17.1544 20.8246C15.3134 20.8275 13.3882 20.8344 11.3788 20.8453C10.3752 20.8505 9.36589 20.8263 8.35083 20.7729Z" fill="black" fill-opacity="0.76"/>
<path d="M17.0225 23.0792C16.9018 23.1004 16.7805 23.1085 16.6586 23.1033C16.6517 23.1027 16.6483 23.1059 16.6483 23.1128C16.6483 23.1151 16.6483 23.1171 16.6483 23.1188C16.6483 23.1223 16.65 23.124 16.6535 23.124C16.8871 23.1335 17.1285 23.1654 17.3518 23.1662C17.6501 23.1668 17.962 23.1708 18.2873 23.1783C18.4867 23.1835 18.6865 23.1835 18.8865 23.1783C19.7693 23.1576 20.6672 23.168 21.5799 23.2094C21.8049 23.2197 22.0308 23.1568 22.2464 23.1844C22.4481 23.2094 22.6404 23.1637 22.843 23.1775C23.0407 23.1918 23.2465 23.1973 23.4603 23.1938C23.7448 23.1895 24.1181 23.2559 24.4501 23.2663C25.0133 23.2847 25.5763 23.2878 26.139 23.2757C26.5063 23.268 26.8934 23.3602 27.2719 23.4016C27.3501 23.4102 27.4245 23.4344 27.4952 23.474C27.5642 23.512 27.6361 23.5404 27.7108 23.5594C27.816 23.5858 27.9186 23.6215 28.0186 23.6663C28.1445 23.7226 28.2695 23.7703 28.3936 23.8094C28.5281 23.852 28.6534 23.9336 28.7695 24.0543C28.7776 24.0623 28.7828 24.0727 28.7845 24.084C28.7862 24.0953 28.7843 24.107 28.779 24.1172C28.7554 24.1643 28.6778 24.1735 28.5462 24.1448C28.222 24.0638 27.8809 24.0267 27.5228 24.0336C26.3997 24.0566 25.4016 24.0914 24.5285 24.1379C23.4353 24.196 22.3642 24.2448 21.3152 24.2845C20.6496 24.3092 20.0386 24.3359 19.4822 24.3647C19.2541 24.3762 19.0316 24.3871 18.8149 24.3974C15.5347 24.5469 12.2584 24.684 8.98621 24.8087C7.48316 24.8662 5.48523 24.9055 2.99241 24.9268C2.94241 24.9268 2.72916 24.9435 2.35268 24.9768C2.15093 24.994 1.93539 24.9912 1.70605 24.9682L3.33642 23.8965C3.55541 23.739 3.80256 23.6088 4.07788 23.5059C4.80498 23.2341 5.55736 23.0964 6.33504 23.093C9.89752 23.0746 13.46 23.07 17.0225 23.0792Z" fill="black" fill-opacity="0.76"/>
<path d="M28.5463 24.1448C28.663 24.1747 28.7705 24.2118 28.8688 24.256C29.0073 24.3198 29.1119 24.3621 29.1826 24.3828C29.4056 24.4483 29.5565 24.5012 29.6352 24.5414C30.2554 24.8552 30.817 25.251 31.3199 25.7286C31.5449 25.9424 31.7984 26.1588 31.9881 26.4356C31.9951 26.4456 31.9991 26.4573 31.9999 26.4695C32.0006 26.4816 31.998 26.4938 31.9923 26.5046C31.9866 26.5153 31.978 26.5243 31.9676 26.5306C31.9571 26.5368 31.9451 26.54 31.9329 26.5399C30.7423 26.5425 29.5456 26.5339 28.3558 26.5666C27.7396 26.5833 27.124 26.5675 26.509 26.5192C26.4682 26.5163 26.4271 26.5221 26.3857 26.5364C26.338 26.5537 26.2961 26.5626 26.2598 26.5632L6.07735 26.552C6.06757 26.5738 6.05292 26.577 6.03337 26.5615C6.01556 26.5471 5.99486 26.5399 5.9713 26.5399L0.192184 26.5451C-0.0250826 26.5451 -0.0581318 26.4712 0.093035 26.3235C0.15856 26.2597 0.205978 26.1571 0.299092 26.0847C0.467502 25.953 0.631027 25.816 0.789666 25.6734C0.946581 25.5326 1.09631 25.411 1.23886 25.3087C1.40842 25.188 1.56418 25.0745 1.70615 24.9682C1.93549 24.9912 2.15103 24.994 2.35278 24.9768C2.72926 24.9434 2.9425 24.9268 2.99251 24.9268C5.48532 24.9055 7.48325 24.8661 8.9863 24.8087C12.2585 24.6839 15.5348 24.5469 18.815 24.3974C19.0317 24.3871 19.2542 24.3761 19.4823 24.3646C20.0387 24.3359 20.6497 24.3092 21.3153 24.2845C22.3643 24.2448 23.4354 24.1959 24.5286 24.1379C25.4017 24.0913 26.3998 24.0566 27.5229 24.0336C27.881 24.0267 28.2221 24.0638 28.5463 24.1448Z" fill="black"/>
<path d="M26.2599 26.5632C26.2559 26.6109 26.2432 26.6442 26.222 26.6632C25.0661 27.7058 23.8136 28.5522 22.4646 29.2023C19.9885 30.3947 17.139 30.9163 14.3801 30.5576C11.9309 30.2398 9.69361 29.367 7.66809 27.9392C7.24046 27.6374 6.78351 27.2348 6.34035 26.8822C6.23 26.7942 6.14234 26.6842 6.07739 26.552L26.2599 26.5632Z" fill="white"/>
</svg>
